<mxfile host="app.diagrams.net" modified="2023-02-27T22:44:09.109Z" agent="5.0 (Macintosh; Intel Mac OS X 10_15_7) AppleWebKit/605.1.15 (KHTML, like Gecko) Version/15.1 Safari/605.1.15" etag="f2BuHzNrnuzqbFLbCY4r" version="20.8.23" type="github">
  <diagram id="C5RBs43oDa-KdzZeNtuy" name="Page-1">
    <mxGraphModel dx="954" dy="647" grid="1" gridSize="10" guides="1" tooltips="1" connect="1" arrows="1" fold="1" page="1" pageScale="1" pageWidth="827" pageHeight="1169" math="0" shadow="0">
      <root>
        <mxCell id="WIyWlLk6GJQsqaUBKTNV-0" />
        <mxCell id="WIyWlLk6GJQsqaUBKTNV-1" parent="WIyWlLk6GJQsqaUBKTNV-0" />
        <mxCell id="zkfFHV4jXpPFQw0GAbJ--0" value="RunProject2" style="swimlane;fontStyle=2;align=center;verticalAlign=top;childLayout=stackLayout;horizontal=1;startSize=26;horizontalStack=0;resizeParent=1;resizeLast=0;collapsible=1;marginBottom=0;rounded=0;shadow=0;strokeWidth=1;" parent="WIyWlLk6GJQsqaUBKTNV-1" vertex="1">
          <mxGeometry x="10" y="80" width="160" height="60" as="geometry">
            <mxRectangle x="230" y="140" width="160" height="26" as="alternateBounds" />
          </mxGeometry>
        </mxCell>
        <mxCell id="zkfFHV4jXpPFQw0GAbJ--1" value="+main()" style="text;align=left;verticalAlign=top;spacingLeft=4;spacingRight=4;overflow=hidden;rotatable=0;points=[[0,0.5],[1,0.5]];portConstraint=eastwest;" parent="zkfFHV4jXpPFQw0GAbJ--0" vertex="1">
          <mxGeometry y="26" width="160" height="26" as="geometry" />
        </mxCell>
        <mxCell id="zkfFHV4jXpPFQw0GAbJ--6" value="Roster" style="swimlane;fontStyle=0;align=center;verticalAlign=top;childLayout=stackLayout;horizontal=1;startSize=26;horizontalStack=0;resizeParent=1;resizeLast=0;collapsible=1;marginBottom=0;rounded=0;shadow=0;strokeWidth=1;" parent="WIyWlLk6GJQsqaUBKTNV-1" vertex="1">
          <mxGeometry x="70" y="210" width="210" height="408" as="geometry">
            <mxRectangle x="130" y="380" width="160" height="26" as="alternateBounds" />
          </mxGeometry>
        </mxCell>
        <mxCell id="zkfFHV4jXpPFQw0GAbJ--7" value="-roster:Â Student[]" style="text;align=left;verticalAlign=top;spacingLeft=4;spacingRight=4;overflow=hidden;rotatable=0;points=[[0,0.5],[1,0.5]];portConstraint=eastwest;" parent="zkfFHV4jXpPFQw0GAbJ--6" vertex="1">
          <mxGeometry y="26" width="210" height="26" as="geometry" />
        </mxCell>
        <mxCell id="zkfFHV4jXpPFQw0GAbJ--8" value="-size: int&#xa;" style="text;align=left;verticalAlign=top;spacingLeft=4;spacingRight=4;overflow=hidden;rotatable=0;points=[[0,0.5],[1,0.5]];portConstraint=eastwest;rounded=0;shadow=0;html=0;" parent="zkfFHV4jXpPFQw0GAbJ--6" vertex="1">
          <mxGeometry y="52" width="210" height="26" as="geometry" />
        </mxCell>
        <mxCell id="zkfFHV4jXpPFQw0GAbJ--9" value="" style="line;html=1;strokeWidth=1;align=left;verticalAlign=middle;spacingTop=-1;spacingLeft=3;spacingRight=3;rotatable=0;labelPosition=right;points=[];portConstraint=eastwest;" parent="zkfFHV4jXpPFQw0GAbJ--6" vertex="1">
          <mxGeometry y="78" width="210" height="8" as="geometry" />
        </mxCell>
        <mxCell id="zkfFHV4jXpPFQw0GAbJ--10" value="+Roster()" style="text;align=left;verticalAlign=top;spacingLeft=4;spacingRight=4;overflow=hidden;rotatable=0;points=[[0,0.5],[1,0.5]];portConstraint=eastwest;fontStyle=4" parent="zkfFHV4jXpPFQw0GAbJ--6" vertex="1">
          <mxGeometry y="86" width="210" height="26" as="geometry" />
        </mxCell>
        <mxCell id="zkfFHV4jXpPFQw0GAbJ--11" value="+getStudent(Profile profile)): Student" style="text;align=left;verticalAlign=top;spacingLeft=4;spacingRight=4;overflow=hidden;rotatable=0;points=[[0,0.5],[1,0.5]];portConstraint=eastwest;" parent="zkfFHV4jXpPFQw0GAbJ--6" vertex="1">
          <mxGeometry y="112" width="210" height="26" as="geometry" />
        </mxCell>
        <mxCell id="5VePyKdH8K8Hi_omqHVl-10" value="+isEmpty() : boolean" style="text;html=1;strokeColor=none;fillColor=none;align=left;verticalAlign=middle;whiteSpace=wrap;rounded=0;" vertex="1" parent="zkfFHV4jXpPFQw0GAbJ--6">
          <mxGeometry y="138" width="210" height="30" as="geometry" />
        </mxCell>
        <mxCell id="5VePyKdH8K8Hi_omqHVl-11" value="+add(Student student) : boolean" style="text;html=1;strokeColor=none;fillColor=none;align=left;verticalAlign=middle;whiteSpace=wrap;rounded=0;" vertex="1" parent="zkfFHV4jXpPFQw0GAbJ--6">
          <mxGeometry y="168" width="210" height="30" as="geometry" />
        </mxCell>
        <mxCell id="5VePyKdH8K8Hi_omqHVl-12" value="+remove (Student student) : boolean" style="text;html=1;strokeColor=none;fillColor=none;align=left;verticalAlign=middle;whiteSpace=wrap;rounded=0;" vertex="1" parent="zkfFHV4jXpPFQw0GAbJ--6">
          <mxGeometry y="198" width="210" height="30" as="geometry" />
        </mxCell>
        <mxCell id="5VePyKdH8K8Hi_omqHVl-13" value="+printRoster() : void" style="text;html=1;strokeColor=none;fillColor=none;align=left;verticalAlign=middle;whiteSpace=wrap;rounded=0;" vertex="1" parent="zkfFHV4jXpPFQw0GAbJ--6">
          <mxGeometry y="228" width="210" height="30" as="geometry" />
        </mxCell>
        <mxCell id="5VePyKdH8K8Hi_omqHVl-14" value="+print() : void" style="text;html=1;strokeColor=none;fillColor=none;align=left;verticalAlign=middle;whiteSpace=wrap;rounded=0;" vertex="1" parent="zkfFHV4jXpPFQw0GAbJ--6">
          <mxGeometry y="258" width="210" height="30" as="geometry" />
        </mxCell>
        <mxCell id="5VePyKdH8K8Hi_omqHVl-15" value="+printByStanding() : void" style="text;html=1;strokeColor=none;fillColor=none;align=left;verticalAlign=middle;whiteSpace=wrap;rounded=0;" vertex="1" parent="zkfFHV4jXpPFQw0GAbJ--6">
          <mxGeometry y="288" width="210" height="30" as="geometry" />
        </mxCell>
        <mxCell id="5VePyKdH8K8Hi_omqHVl-16" value="list(String school) : void" style="text;html=1;strokeColor=none;fillColor=none;align=left;verticalAlign=middle;whiteSpace=wrap;rounded=0;" vertex="1" parent="zkfFHV4jXpPFQw0GAbJ--6">
          <mxGeometry y="318" width="210" height="30" as="geometry" />
        </mxCell>
        <mxCell id="5VePyKdH8K8Hi_omqHVl-17" value="+replaceMajor(Student student,String major) : boolean)" style="text;html=1;strokeColor=none;fillColor=none;align=left;verticalAlign=middle;whiteSpace=wrap;rounded=0;" vertex="1" parent="zkfFHV4jXpPFQw0GAbJ--6">
          <mxGeometry y="348" width="210" height="30" as="geometry" />
        </mxCell>
        <mxCell id="5VePyKdH8K8Hi_omqHVl-18" value="+replaceScholar(Resident resident,String scholarship) : boolean)" style="text;html=1;strokeColor=none;fillColor=none;align=left;verticalAlign=middle;whiteSpace=wrap;rounded=0;" vertex="1" parent="zkfFHV4jXpPFQw0GAbJ--6">
          <mxGeometry y="378" width="210" height="30" as="geometry" />
        </mxCell>
        <mxCell id="zkfFHV4jXpPFQw0GAbJ--13" value="Enrollment" style="swimlane;fontStyle=0;align=center;verticalAlign=top;childLayout=stackLayout;horizontal=1;startSize=26;horizontalStack=0;resizeParent=1;resizeLast=0;collapsible=1;marginBottom=0;rounded=0;shadow=0;strokeWidth=1;" parent="WIyWlLk6GJQsqaUBKTNV-1" vertex="1">
          <mxGeometry x="520" y="250" width="250" height="452" as="geometry">
            <mxRectangle x="340" y="380" width="170" height="26" as="alternateBounds" />
          </mxGeometry>
        </mxCell>
        <mxCell id="zkfFHV4jXpPFQw0GAbJ--14" value="-enrollment : EnrollStudent[]" style="text;align=left;verticalAlign=top;spacingLeft=4;spacingRight=4;overflow=hidden;rotatable=0;points=[[0,0.5],[1,0.5]];portConstraint=eastwest;" parent="zkfFHV4jXpPFQw0GAbJ--13" vertex="1">
          <mxGeometry y="26" width="250" height="26" as="geometry" />
        </mxCell>
        <mxCell id="5VePyKdH8K8Hi_omqHVl-19" value="-size : int" style="text;html=1;strokeColor=none;fillColor=none;align=left;verticalAlign=middle;whiteSpace=wrap;rounded=0;" vertex="1" parent="zkfFHV4jXpPFQw0GAbJ--13">
          <mxGeometry y="52" width="250" height="30" as="geometry" />
        </mxCell>
        <mxCell id="5VePyKdH8K8Hi_omqHVl-22" value="" style="line;strokeWidth=2;html=1;" vertex="1" parent="zkfFHV4jXpPFQw0GAbJ--13">
          <mxGeometry y="82" width="250" height="10" as="geometry" />
        </mxCell>
        <mxCell id="5VePyKdH8K8Hi_omqHVl-21" value="+Enrollment()" style="text;html=1;align=left;verticalAlign=middle;resizable=0;points=[];autosize=1;strokeColor=none;fillColor=none;" vertex="1" parent="zkfFHV4jXpPFQw0GAbJ--13">
          <mxGeometry y="92" width="250" height="30" as="geometry" />
        </mxCell>
        <mxCell id="5VePyKdH8K8Hi_omqHVl-23" value="+add(EnrollStudent enrollStudent) : void&lt;br&gt;" style="text;html=1;strokeColor=none;fillColor=none;align=left;verticalAlign=middle;whiteSpace=wrap;rounded=0;" vertex="1" parent="zkfFHV4jXpPFQw0GAbJ--13">
          <mxGeometry y="122" width="250" height="30" as="geometry" />
        </mxCell>
        <mxCell id="5VePyKdH8K8Hi_omqHVl-25" value="+remove(EnrollStudent enrollStudent) : void" style="text;html=1;strokeColor=none;fillColor=none;align=left;verticalAlign=middle;whiteSpace=wrap;rounded=0;" vertex="1" parent="zkfFHV4jXpPFQw0GAbJ--13">
          <mxGeometry y="152" width="250" height="30" as="geometry" />
        </mxCell>
        <mxCell id="5VePyKdH8K8Hi_omqHVl-26" value="+isAlreadyTaking(EnrollStudent student, int credits) : boolean)" style="text;html=1;strokeColor=none;fillColor=none;align=left;verticalAlign=middle;whiteSpace=wrap;rounded=0;" vertex="1" parent="zkfFHV4jXpPFQw0GAbJ--13">
          <mxGeometry y="182" width="250" height="30" as="geometry" />
        </mxCell>
        <mxCell id="5VePyKdH8K8Hi_omqHVl-27" value="+contains(Enrollstudent enrollStudent) : boolean" style="text;html=1;strokeColor=none;fillColor=none;align=left;verticalAlign=middle;whiteSpace=wrap;rounded=0;" vertex="1" parent="zkfFHV4jXpPFQw0GAbJ--13">
          <mxGeometry y="212" width="250" height="30" as="geometry" />
        </mxCell>
        <mxCell id="5VePyKdH8K8Hi_omqHVl-28" value="+find(EnrollStudent enrollStudent) : int" style="text;html=1;strokeColor=none;fillColor=none;align=left;verticalAlign=middle;whiteSpace=wrap;rounded=0;" vertex="1" parent="zkfFHV4jXpPFQw0GAbJ--13">
          <mxGeometry y="242" width="250" height="30" as="geometry" />
        </mxCell>
        <mxCell id="5VePyKdH8K8Hi_omqHVl-29" value="+getEnrollStudent(Profile profile) : EnrollStudent" style="text;html=1;strokeColor=none;fillColor=none;align=left;verticalAlign=middle;whiteSpace=wrap;rounded=0;" vertex="1" parent="zkfFHV4jXpPFQw0GAbJ--13">
          <mxGeometry y="272" width="250" height="30" as="geometry" />
        </mxCell>
        <mxCell id="5VePyKdH8K8Hi_omqHVl-30" value="+setEnrollCredits(EnrollStudent enrollStudent, int enrollCredits) : void" style="text;html=1;strokeColor=none;fillColor=none;align=center;verticalAlign=middle;whiteSpace=wrap;rounded=0;" vertex="1" parent="zkfFHV4jXpPFQw0GAbJ--13">
          <mxGeometry y="302" width="250" height="30" as="geometry" />
        </mxCell>
        <mxCell id="5VePyKdH8K8Hi_omqHVl-31" value="+isEmpty() : boolean" style="text;html=1;strokeColor=none;fillColor=none;align=left;verticalAlign=middle;whiteSpace=wrap;rounded=0;" vertex="1" parent="zkfFHV4jXpPFQw0GAbJ--13">
          <mxGeometry y="332" width="250" height="30" as="geometry" />
        </mxCell>
        <mxCell id="5VePyKdH8K8Hi_omqHVl-32" value="+print() : void" style="text;html=1;strokeColor=none;fillColor=none;align=left;verticalAlign=middle;whiteSpace=wrap;rounded=0;" vertex="1" parent="zkfFHV4jXpPFQw0GAbJ--13">
          <mxGeometry y="362" width="250" height="30" as="geometry" />
        </mxCell>
        <mxCell id="5VePyKdH8K8Hi_omqHVl-33" value="+printTuition(Roster roster) : void" style="text;html=1;strokeColor=none;fillColor=none;align=left;verticalAlign=middle;whiteSpace=wrap;rounded=0;" vertex="1" parent="zkfFHV4jXpPFQw0GAbJ--13">
          <mxGeometry y="392" width="250" height="30" as="geometry" />
        </mxCell>
        <mxCell id="5VePyKdH8K8Hi_omqHVl-34" value="+semesterEnd(Roster roster) : void" style="text;html=1;strokeColor=none;fillColor=none;align=left;verticalAlign=middle;whiteSpace=wrap;rounded=0;" vertex="1" parent="zkfFHV4jXpPFQw0GAbJ--13">
          <mxGeometry y="422" width="250" height="30" as="geometry" />
        </mxCell>
        <mxCell id="zkfFHV4jXpPFQw0GAbJ--17" value="TuitionManager&#xa;" style="swimlane;fontStyle=0;align=center;verticalAlign=top;childLayout=stackLayout;horizontal=1;startSize=26;horizontalStack=0;resizeParent=1;resizeLast=0;collapsible=1;marginBottom=0;rounded=0;shadow=0;strokeWidth=1;" parent="WIyWlLk6GJQsqaUBKTNV-1" vertex="1">
          <mxGeometry x="330" y="70" width="160" height="120" as="geometry">
            <mxRectangle x="550" y="140" width="160" height="26" as="alternateBounds" />
          </mxGeometry>
        </mxCell>
        <mxCell id="zkfFHV4jXpPFQw0GAbJ--18" value="-roster:Â Roster" style="text;align=left;verticalAlign=top;spacingLeft=4;spacingRight=4;overflow=hidden;rotatable=0;points=[[0,0.5],[1,0.5]];portConstraint=eastwest;" parent="zkfFHV4jXpPFQw0GAbJ--17" vertex="1">
          <mxGeometry y="26" width="160" height="26" as="geometry" />
        </mxCell>
        <mxCell id="zkfFHV4jXpPFQw0GAbJ--19" value="-enrollment:Â Enrollment&#xa;" style="text;align=left;verticalAlign=top;spacingLeft=4;spacingRight=4;overflow=hidden;rotatable=0;points=[[0,0.5],[1,0.5]];portConstraint=eastwest;rounded=0;shadow=0;html=0;" parent="zkfFHV4jXpPFQw0GAbJ--17" vertex="1">
          <mxGeometry y="52" width="160" height="26" as="geometry" />
        </mxCell>
        <mxCell id="zkfFHV4jXpPFQw0GAbJ--23" value="" style="line;html=1;strokeWidth=1;align=left;verticalAlign=middle;spacingTop=-1;spacingLeft=3;spacingRight=3;rotatable=0;labelPosition=right;points=[];portConstraint=eastwest;" parent="zkfFHV4jXpPFQw0GAbJ--17" vertex="1">
          <mxGeometry y="78" width="160" height="8" as="geometry" />
        </mxCell>
        <mxCell id="5VePyKdH8K8Hi_omqHVl-4" value="+TuitionManager()&lt;br&gt;+run()" style="text;html=1;strokeColor=none;fillColor=none;align=left;verticalAlign=middle;whiteSpace=wrap;rounded=0;" vertex="1" parent="zkfFHV4jXpPFQw0GAbJ--17">
          <mxGeometry y="86" width="160" height="34" as="geometry" />
        </mxCell>
        <mxCell id="zkfFHV4jXpPFQw0GAbJ--26" value="" style="endArrow=open;shadow=0;strokeWidth=1;rounded=0;endFill=1;edgeStyle=elbowEdgeStyle;elbow=vertical;" parent="WIyWlLk6GJQsqaUBKTNV-1" source="zkfFHV4jXpPFQw0GAbJ--0" target="zkfFHV4jXpPFQw0GAbJ--17" edge="1">
          <mxGeometry x="0.5" y="41" relative="1" as="geometry">
            <mxPoint x="380" y="192" as="sourcePoint" />
            <mxPoint x="540" y="192" as="targetPoint" />
            <mxPoint x="-40" y="32" as="offset" />
          </mxGeometry>
        </mxCell>
        <mxCell id="5VePyKdH8K8Hi_omqHVl-7" style="edgeStyle=orthogonalEdgeStyle;rounded=0;orthogonalLoop=1;jettySize=auto;html=1;entryX=0.5;entryY=0;entryDx=0;entryDy=0;" edge="1" parent="WIyWlLk6GJQsqaUBKTNV-1" source="5VePyKdH8K8Hi_omqHVl-4" target="zkfFHV4jXpPFQw0GAbJ--6">
          <mxGeometry relative="1" as="geometry" />
        </mxCell>
        <mxCell id="5VePyKdH8K8Hi_omqHVl-8" style="edgeStyle=orthogonalEdgeStyle;rounded=0;orthogonalLoop=1;jettySize=auto;html=1;entryX=0.6;entryY=-0.043;entryDx=0;entryDy=0;entryPerimeter=0;" edge="1" parent="WIyWlLk6GJQsqaUBKTNV-1" source="5VePyKdH8K8Hi_omqHVl-4" target="zkfFHV4jXpPFQw0GAbJ--13">
          <mxGeometry relative="1" as="geometry">
            <Array as="points">
              <mxPoint x="670" y="173" />
            </Array>
          </mxGeometry>
        </mxCell>
        <mxCell id="5VePyKdH8K8Hi_omqHVl-35" value="Constant" style="swimlane;fontStyle=0;childLayout=stackLayout;horizontal=1;startSize=30;horizontalStack=0;resizeParent=1;resizeParentMax=0;resizeLast=0;collapsible=1;marginBottom=0;whiteSpace=wrap;html=1;" vertex="1" parent="WIyWlLk6GJQsqaUBKTNV-1">
          <mxGeometry x="80" y="780" width="140" height="120" as="geometry" />
        </mxCell>
        <mxCell id="5VePyKdH8K8Hi_omqHVl-36" value="oh god&lt;br&gt;" style="text;strokeColor=none;fillColor=none;align=left;verticalAlign=middle;spacingLeft=4;spacingRight=4;overflow=hidden;points=[[0,0.5],[1,0.5]];portConstraint=eastwest;rotatable=0;whiteSpace=wrap;html=1;" vertex="1" parent="5VePyKdH8K8Hi_omqHVl-35">
          <mxGeometry y="30" width="140" height="30" as="geometry" />
        </mxCell>
        <mxCell id="5VePyKdH8K8Hi_omqHVl-37" value="oh god&lt;br&gt;" style="text;strokeColor=none;fillColor=none;align=left;verticalAlign=middle;spacingLeft=4;spacingRight=4;overflow=hidden;points=[[0,0.5],[1,0.5]];portConstraint=eastwest;rotatable=0;whiteSpace=wrap;html=1;" vertex="1" parent="5VePyKdH8K8Hi_omqHVl-35">
          <mxGeometry y="60" width="140" height="30" as="geometry" />
        </mxCell>
        <mxCell id="5VePyKdH8K8Hi_omqHVl-38" value="vvvvvvasdfasds" style="text;strokeColor=none;fillColor=none;align=left;verticalAlign=middle;spacingLeft=4;spacingRight=4;overflow=hidden;points=[[0,0.5],[1,0.5]];portConstraint=eastwest;rotatable=0;whiteSpace=wrap;html=1;" vertex="1" parent="5VePyKdH8K8Hi_omqHVl-35">
          <mxGeometry y="90" width="140" height="30" as="geometry" />
        </mxCell>
        <mxCell id="5VePyKdH8K8Hi_omqHVl-39" value="Date" style="swimlane;fontStyle=0;childLayout=stackLayout;horizontal=1;startSize=30;horizontalStack=0;resizeParent=1;resizeParentMax=0;resizeLast=0;collapsible=1;marginBottom=0;whiteSpace=wrap;html=1;" vertex="1" parent="WIyWlLk6GJQsqaUBKTNV-1">
          <mxGeometry x="290" y="702" width="140" height="460" as="geometry" />
        </mxCell>
        <mxCell id="5VePyKdH8K8Hi_omqHVl-40" value="-year : int" style="text;strokeColor=none;fillColor=none;align=left;verticalAlign=middle;spacingLeft=4;spacingRight=4;overflow=hidden;points=[[0,0.5],[1,0.5]];portConstraint=eastwest;rotatable=0;whiteSpace=wrap;html=1;" vertex="1" parent="5VePyKdH8K8Hi_omqHVl-39">
          <mxGeometry y="30" width="140" height="30" as="geometry" />
        </mxCell>
        <mxCell id="5VePyKdH8K8Hi_omqHVl-41" value="-month : int" style="text;strokeColor=none;fillColor=none;align=left;verticalAlign=middle;spacingLeft=4;spacingRight=4;overflow=hidden;points=[[0,0.5],[1,0.5]];portConstraint=eastwest;rotatable=0;whiteSpace=wrap;html=1;" vertex="1" parent="5VePyKdH8K8Hi_omqHVl-39">
          <mxGeometry y="60" width="140" height="30" as="geometry" />
        </mxCell>
        <mxCell id="5VePyKdH8K8Hi_omqHVl-42" value="-day : int" style="text;strokeColor=none;fillColor=none;align=left;verticalAlign=middle;spacingLeft=4;spacingRight=4;overflow=hidden;points=[[0,0.5],[1,0.5]];portConstraint=eastwest;rotatable=0;whiteSpace=wrap;html=1;" vertex="1" parent="5VePyKdH8K8Hi_omqHVl-39">
          <mxGeometry y="90" width="140" height="30" as="geometry" />
        </mxCell>
        <mxCell id="5VePyKdH8K8Hi_omqHVl-45" value="" style="line;strokeWidth=2;html=1;" vertex="1" parent="5VePyKdH8K8Hi_omqHVl-39">
          <mxGeometry y="120" width="140" height="10" as="geometry" />
        </mxCell>
        <mxCell id="5VePyKdH8K8Hi_omqHVl-43" value="+Date()" style="text;html=1;strokeColor=none;fillColor=none;align=left;verticalAlign=middle;whiteSpace=wrap;rounded=0;" vertex="1" parent="5VePyKdH8K8Hi_omqHVl-39">
          <mxGeometry y="130" width="140" height="30" as="geometry" />
        </mxCell>
        <mxCell id="5VePyKdH8K8Hi_omqHVl-47" value="+Date(String date)" style="text;html=1;strokeColor=none;fillColor=none;align=left;verticalAlign=middle;whiteSpace=wrap;rounded=0;" vertex="1" parent="5VePyKdH8K8Hi_omqHVl-39">
          <mxGeometry y="160" width="140" height="30" as="geometry" />
        </mxCell>
        <mxCell id="5VePyKdH8K8Hi_omqHVl-48" value="+Date(int month, int day, int year)" style="text;html=1;strokeColor=none;fillColor=none;align=center;verticalAlign=middle;whiteSpace=wrap;rounded=0;" vertex="1" parent="5VePyKdH8K8Hi_omqHVl-39">
          <mxGeometry y="190" width="140" height="30" as="geometry" />
        </mxCell>
        <mxCell id="5VePyKdH8K8Hi_omqHVl-49" value="+getYear() : int" style="text;html=1;strokeColor=none;fillColor=none;align=left;verticalAlign=middle;whiteSpace=wrap;rounded=0;" vertex="1" parent="5VePyKdH8K8Hi_omqHVl-39">
          <mxGeometry y="220" width="140" height="30" as="geometry" />
        </mxCell>
        <mxCell id="5VePyKdH8K8Hi_omqHVl-50" value="+getMonth() : int" style="text;html=1;strokeColor=none;fillColor=none;align=left;verticalAlign=middle;whiteSpace=wrap;rounded=0;" vertex="1" parent="5VePyKdH8K8Hi_omqHVl-39">
          <mxGeometry y="250" width="140" height="30" as="geometry" />
        </mxCell>
        <mxCell id="5VePyKdH8K8Hi_omqHVl-51" value="+getDay() : int" style="text;html=1;strokeColor=none;fillColor=none;align=left;verticalAlign=middle;whiteSpace=wrap;rounded=0;" vertex="1" parent="5VePyKdH8K8Hi_omqHVl-39">
          <mxGeometry y="280" width="140" height="30" as="geometry" />
        </mxCell>
        <mxCell id="5VePyKdH8K8Hi_omqHVl-52" value="+isValid() : boolean" style="text;html=1;strokeColor=none;fillColor=none;align=left;verticalAlign=middle;whiteSpace=wrap;rounded=0;" vertex="1" parent="5VePyKdH8K8Hi_omqHVl-39">
          <mxGeometry y="310" width="140" height="30" as="geometry" />
        </mxCell>
        <mxCell id="5VePyKdH8K8Hi_omqHVl-55" value="+isLeapYear() : boolean" style="text;html=1;strokeColor=none;fillColor=none;align=left;verticalAlign=middle;whiteSpace=wrap;rounded=0;" vertex="1" parent="5VePyKdH8K8Hi_omqHVl-39">
          <mxGeometry y="340" width="140" height="30" as="geometry" />
        </mxCell>
        <mxCell id="5VePyKdH8K8Hi_omqHVl-53" value="+toString() : String" style="text;html=1;strokeColor=none;fillColor=none;align=left;verticalAlign=middle;whiteSpace=wrap;rounded=0;" vertex="1" parent="5VePyKdH8K8Hi_omqHVl-39">
          <mxGeometry y="370" width="140" height="30" as="geometry" />
        </mxCell>
        <mxCell id="5VePyKdH8K8Hi_omqHVl-54" value="+equals(Date otherDate) : boolean" style="text;html=1;strokeColor=none;fillColor=none;align=left;verticalAlign=middle;whiteSpace=wrap;rounded=0;" vertex="1" parent="5VePyKdH8K8Hi_omqHVl-39">
          <mxGeometry y="400" width="140" height="30" as="geometry" />
        </mxCell>
        <mxCell id="5VePyKdH8K8Hi_omqHVl-56" value="+compareTo(Date otherDate) : int" style="text;html=1;strokeColor=none;fillColor=none;align=center;verticalAlign=middle;whiteSpace=wrap;rounded=0;" vertex="1" parent="5VePyKdH8K8Hi_omqHVl-39">
          <mxGeometry y="430" width="140" height="30" as="geometry" />
        </mxCell>
      </root>
    </mxGraphModel>
  </diagram>
</mxfile>
